<svg xmlns="http://www.w3.org/2000/svg" viewBox="0 0 122 18" id="f_icon_bc61888b">
        <path d="M1.27 5.58C.422 5.89 0 6.3 0 6.812v11.176h5.951v-5.269h8.332v-2.235H5.95V7.928c0-.32.317-.479.95-.479h7.382V5.214H3.57a6.949 6.949 0 0 0-2.302.367zm29.932.114a5.717 5.717 0 0 0-2.32-.48 5.244 5.244 0 0 0-2.295.496c-.693.33-1.177.756-1.452 1.276L19.41 17.987h3.332l.831-1.596h7.63l.823 1.596h6.425l-5.76-11.062c-.266-.502-.762-.912-1.489-1.231zm-6.443 8.461l2.635-5.061 2.636 5.062h-5.271zM45.863 7.09c-1.861 1.25-2.792 2.754-2.793 4.51 0 1.757.93 3.26 2.793 4.51 1.862 1.255 4.1 1.88 6.717 1.877h7.141v-2.234H52.58c-1.24 0-2.076-.527-2.508-1.58-.234-.575-.35-1.433-.35-2.573.002-1.14.118-1.995.35-2.566.433-1.054 1.27-1.58 2.508-1.581h7.141v-2.24H52.58c-2.618 0-4.857.627-6.717 1.878zm22.68-1.51c-.85.31-1.27.72-1.27 1.23v9.582c0 .514.425.923 1.27 1.23a6.865 6.865 0 0 0 2.295.367H81.55v-2.236h-7.38c-.635 0-.953-.16-.952-.481v-2.554h8.332v-2.235h-8.332V7.928c0-.32.317-.479.953-.479h7.38V5.214H70.837a6.95 6.95 0 0 0-2.295.367zM91.69 17.913l.006-.025h6.4v-4.363L91.68 10.92l.01 6.992zm11.92-12.687v2.236h5.26c.622 0 .935.159.935.479V18h6.005V7.94c0-.32.312-.48.936-.48H122V5.227h-18.391z" fill="#fff"></path>
        <path d="M98.208.099a.094.094 0 0 0-.063-.094.092.092 0 0 0-.107.037c-1.63 2.52-2.55 3.959-3.376 5.264h-9.724c-.12 0-.17.158-.063.198 4.034 1.531 9.862 3.838 13.117 5.133.085.035.218-.046.218-.104L98.208.1z" fill="#F50"></path>
    </svg>