<svg viewBox="0 0 24 24" fill="none" xmlns="http://www.w3.org/2000/svg" class="sc-hHTYSt cFxqgJ">
  <path fill-rule="evenodd" clip-rule="evenodd" d="M.493 15.498C1.99 20.419 6.57 24 11.987 24 18.622 24 24 18.627 24 12S18.622 0 11.987 0C5.621 0 .412 4.947 0 11.203l.008.013v-.006l6.455 2.654c.176-.116.363-.216.563-.297.453-.186.93-.27 1.407-.248l2.94-4.266-.001-.059a4.57 4.57 0 0 1 4.562-4.565 4.569 4.569 0 0 1 4.563 4.565 4.57 4.57 0 0 1-4.563 4.567l-.103-.002-4.206 3.002a3.334 3.334 0 0 1-4.612 3.165 3.325 3.325 0 0 1-1.968-2.351L.493 15.498Zm6.812 3.525a2.573 2.573 0 0 0 3.365-3.353 2.552 2.552 0 0 0-1.387-1.394 2.557 2.557 0 0 0-1.896-.029l1.536.636a1.892 1.892 0 1 1-1.456 3.494l-1.485-.614c.263.548.72 1.009 1.323 1.26Zm5.59-10.029a3.045 3.045 0 0 0 3.04 3.043 3.045 3.045 0 0 0 3.04-3.043 3.045 3.045 0 0 0-3.04-3.041 3.045 3.045 0 0 0-3.04 3.041Zm3.045-2.29a2.285 2.285 0 0 0 0 4.57 2.285 2.285 0 0 0 0-4.57Z" fill="#fff"/>
</svg>
